<svg width="1500" height="1861" viewBox="0 0 1500 1861" fill="none" xmlns="http://www.w3.org/2000/svg">
<circle cx="750" cy="750" r="749" fill="#D64647" stroke="#EBF3EB" stroke-width="2"/>
<circle cx="750" cy="750" r="632" fill="#FBFDFB" stroke="#EBF3EB" stroke-width="2"/>
<path d="M480 670H520.5L538 1170C538 1245 507.404 1237.5 492 1237.5C476.929 1237.5 450 1218 450 1170L480 670Z" fill="#1B2323"/>
<path d="M992 708H1032.5L1050 1174.79C1050 1244.81 1019.4 1237.81 1004 1237.81C988.929 1237.81 962 1219.6 962 1174.79L992 708Z" fill="#1B2323"/>
<path d="M974 378.5L1034.09 273V770L945 675.5L974 378.5Z" fill="#1B2323"/>
<ellipse cx="500" cy="533" rx="125" ry="175" fill="#1B2323"/>
<path d="M126.768 1682.82L101.424 1682.56C93.68 1682.56 87.784 1682.65 83.736 1682.82C81.096 1706.23 79.688 1726.3 79.512 1743.02C120.872 1743.02 151.584 1739.67 171.648 1732.98C170.064 1746.01 166.104 1756.13 159.768 1763.34C153.432 1770.56 145.512 1774.17 136.008 1774.17C133.192 1774.17 125.272 1773.38 112.248 1771.79C99.4 1770.38 85.76 1769.68 71.328 1769.68C56.896 1769.68 42.816 1771.18 29.088 1774.17C31.024 1765.9 35.248 1759.12 41.76 1753.84V1752.78C41.76 1743.28 44.224 1721.63 49.152 1687.84C44.752 1689.42 40.968 1690.83 37.8 1692.06C37.448 1688.19 37.272 1685.29 37.272 1683.35C37.272 1671.56 42.464 1664.08 52.848 1660.91C56.016 1637.68 58.128 1616.74 59.184 1598.08C52.672 1597.73 48.536 1596.23 46.776 1593.59C45.016 1590.95 44.136 1585.76 44.136 1578.02C44.664 1570.1 45.368 1564.9 46.248 1562.44C65.96 1565.08 87.696 1566.4 111.456 1566.4C135.392 1566.4 158.448 1564.29 180.624 1560.06C178.16 1578.54 166.896 1589.63 146.832 1593.33C135.04 1595.62 117.528 1597.11 94.296 1597.82C94.12 1599.75 91.568 1620.17 86.64 1659.06C97.2 1659.42 104.504 1659.59 108.552 1659.59C125.272 1659.59 137.152 1656.69 144.192 1650.88C144.544 1654.4 144.72 1657.04 144.72 1658.8C144.72 1674.82 138.736 1682.82 126.768 1682.82ZM259.523 1634.25C254.595 1634.25 250.195 1635.92 246.323 1639.26C242.451 1642.43 240.515 1647.01 240.515 1652.99C240.515 1658.98 242.539 1664.61 246.587 1669.89C250.811 1675.17 255.915 1679.83 261.899 1683.88C267.883 1687.75 273.867 1691.8 279.851 1696.02C286.011 1700.07 291.379 1705.18 295.955 1711.34C300.531 1717.32 303.083 1724.01 303.611 1731.4C303.611 1744.07 298.155 1754.72 287.243 1763.34C276.331 1771.97 262.779 1776.28 246.587 1776.28C230.395 1776.28 217.635 1773.02 208.307 1766.51C199.155 1760 194.579 1752.52 194.579 1744.07C194.579 1735.62 197.131 1728.85 202.235 1723.74C207.515 1718.46 214.027 1715.82 221.771 1715.82C225.819 1715.82 229.603 1716.53 233.123 1717.94C227.491 1723.92 224.675 1730.26 224.675 1736.94C224.675 1743.63 226.523 1749 230.219 1753.05C233.915 1757.1 238.931 1759.12 245.267 1759.12C251.603 1759.12 256.883 1757.54 261.107 1754.37C265.507 1751.02 267.707 1746.8 267.707 1741.7C267.707 1736.42 266.211 1731.75 263.219 1727.7C260.227 1723.66 256.443 1720.14 251.867 1717.14C247.467 1713.98 242.627 1710.46 237.347 1706.58C232.067 1702.71 227.139 1698.84 222.563 1694.97C218.163 1690.92 214.467 1685.9 211.475 1679.92C208.483 1673.76 206.987 1667.07 206.987 1659.86C206.987 1647.36 212.091 1637.15 222.299 1629.23C232.683 1621.14 245.531 1617.09 260.843 1617.09C276.331 1617.09 287.595 1620.08 294.635 1626.06C301.851 1632.05 305.459 1639.09 305.459 1647.18C305.459 1655.1 302.907 1661.88 297.803 1667.51C292.875 1673.14 286.451 1675.96 278.531 1675.96C274.659 1675.96 270.259 1675.17 265.331 1673.58C269.203 1670.24 272.195 1666.46 274.307 1662.23C276.419 1657.83 277.475 1653.52 277.475 1649.3C277.475 1645.07 275.715 1641.55 272.195 1638.74C268.675 1635.74 264.451 1634.25 259.523 1634.25ZM404.183 1637.68C415.447 1629.23 426.535 1625.01 437.447 1625.01C448.359 1625.01 457.335 1629.41 464.375 1638.21C471.591 1646.83 475.199 1659.42 475.199 1675.96C475.199 1702.36 467.983 1724.8 453.551 1743.28C439.119 1761.76 421.783 1771 401.543 1771C394.327 1771 387.023 1769.59 379.631 1766.78C396.879 1762.73 410.607 1751.55 420.815 1733.25C431.023 1714.94 436.127 1696.73 436.127 1678.6C436.127 1670.15 434.543 1663.29 431.375 1658.01C428.383 1652.73 424.071 1650.09 418.439 1650.09C407.703 1650.09 398.199 1656.6 389.927 1669.62C381.655 1682.65 375.319 1700.51 370.919 1723.22C366.519 1745.74 364.319 1769.24 364.319 1793.7C364.319 1818.34 366.079 1839.73 369.599 1857.86C355.167 1857.33 344.431 1854.95 337.391 1850.73C330.527 1846.68 327.095 1838.85 327.095 1827.23C327.095 1823.01 329.735 1800.74 335.015 1760.44C340.471 1719.96 343.199 1688.81 343.199 1666.98C343.199 1645.16 341.879 1626.77 339.239 1611.81C353.319 1615.33 362.999 1621.84 368.279 1631.34C373.735 1640.85 376.463 1654.75 376.463 1673.06C383.855 1657.92 393.095 1646.13 404.183 1637.68ZM537.612 1721.1C537.612 1729.38 539.108 1736.15 542.1 1741.43C545.268 1746.54 549.668 1749.09 555.3 1749.09C563.572 1749.09 571.404 1744.25 578.796 1734.57C586.364 1724.89 592.348 1712.48 596.748 1697.34C601.324 1682.21 603.612 1667.86 603.612 1654.31C603.612 1640.58 603.084 1629.5 602.028 1621.05C607.308 1620.7 611.004 1620.52 613.116 1620.52C622.092 1620.52 628.868 1622.19 633.444 1625.54C638.02 1628.88 640.308 1634.86 640.308 1643.49C640.308 1646.83 638.196 1660.47 633.972 1684.41C629.748 1708.17 627.636 1727.26 627.636 1741.7C627.636 1755.95 630.364 1768.62 635.82 1779.71C622.62 1777.42 612.94 1772.58 606.78 1765.19C600.62 1757.62 597.54 1746.8 597.54 1732.72C597.54 1730.26 597.892 1725.5 598.596 1718.46C593.844 1735.18 585.396 1748.65 573.252 1758.86C561.108 1769.06 549.14 1774.17 537.348 1774.17C525.732 1774.17 516.316 1769.86 509.1 1761.23C502.06 1752.43 498.54 1740.02 498.54 1724.01C498.54 1707.99 501.356 1692.5 506.988 1677.54C512.796 1662.41 521.42 1649.65 532.86 1639.26C544.3 1628.7 557.06 1623.42 571.14 1623.42C579.236 1623.42 587.508 1625.36 595.956 1629.23C578.18 1635.57 564.012 1648.06 553.452 1666.72C542.892 1685.2 537.612 1703.33 537.612 1721.1ZM707.038 1711.34C707.038 1740.73 715.662 1755.42 732.91 1755.42C739.598 1755.42 746.374 1753.14 753.238 1748.56C760.102 1743.98 766.086 1737.65 771.19 1729.55C777.526 1730.96 780.694 1734.22 780.694 1739.32C773.302 1752.17 764.238 1761.32 753.502 1766.78C742.766 1772.23 732.03 1774.96 721.294 1774.96C706.862 1774.96 694.542 1769.68 684.334 1759.12C674.302 1748.38 669.286 1732.9 669.286 1712.66C669.286 1686.78 676.414 1664.7 690.67 1646.39C704.926 1627.91 724.198 1618.67 748.486 1618.67C762.038 1618.67 772.246 1622.02 779.11 1628.7C785.974 1635.22 789.406 1643.05 789.406 1652.2C789.406 1661.18 786.59 1669.01 780.958 1675.7C775.502 1682.38 768.462 1685.73 759.838 1685.73C755.614 1685.73 751.39 1684.85 747.166 1683.09C749.806 1680.1 752.27 1675.43 754.558 1669.1C756.846 1662.58 757.99 1656.6 757.99 1651.14C757.99 1640.41 753.326 1635.04 743.998 1635.04C733.086 1635.04 724.198 1643.05 717.334 1659.06C710.47 1675.08 707.038 1692.5 707.038 1711.34ZM702.814 1781.56C714.782 1782.26 723.582 1785.26 729.214 1790.54C734.846 1795.99 737.662 1803.3 737.662 1812.45C737.662 1821.6 734.318 1830.4 727.63 1838.85C721.118 1847.3 712.318 1853.1 701.23 1856.27C691.726 1852.75 686.974 1845.27 686.974 1833.83C695.422 1832.25 702.022 1829.17 706.774 1824.59C711.702 1820.19 714.166 1815.18 714.166 1809.54C714.166 1801.1 708.974 1795.02 698.59 1791.33C698.766 1787.98 700.174 1784.73 702.814 1781.56ZM895.249 1638.74C883.809 1638.74 873.601 1646.48 864.625 1661.97C855.649 1677.28 851.161 1692.59 851.161 1707.9C851.161 1739.94 859.433 1755.95 875.977 1755.95C887.769 1755.95 897.361 1748.3 904.753 1732.98C912.145 1717.5 915.841 1700.16 915.841 1680.98C915.841 1652.82 908.977 1638.74 895.249 1638.74ZM911.617 1619.46C922.177 1619.46 931.153 1624.66 938.545 1635.04C945.937 1645.42 949.633 1659.33 949.633 1676.75C949.633 1696.29 945.673 1714.24 937.753 1730.61C928.953 1749.09 916.457 1761.85 900.265 1768.89C891.113 1772.94 881.081 1774.96 870.169 1774.96C854.857 1774.96 841.481 1769.06 830.041 1757.27C818.777 1745.3 813.145 1728.23 813.145 1706.06C813.145 1683.7 818.601 1664.08 829.513 1647.18C840.425 1630.11 854.857 1619.38 872.809 1614.98C874.745 1614.98 876.505 1615.59 878.089 1616.82C879.849 1617.88 880.729 1619.02 880.729 1620.26C862.953 1632.58 852.305 1649.74 848.785 1671.74C852.481 1661.88 856.969 1653.34 862.249 1646.13C867.705 1638.91 873.337 1633.46 879.145 1629.76C890.233 1622.9 901.057 1619.46 911.617 1619.46ZM1140.31 1771C1138.9 1771.53 1135.38 1772.23 1129.75 1773.11C1124.12 1774.17 1118.93 1774.7 1114.18 1774.7C1109.6 1774.7 1106.96 1773.38 1106.26 1770.74C1103.09 1759.82 1098.34 1738.53 1092 1706.85C1085.66 1674.99 1079.24 1646.13 1072.73 1620.26C1066.39 1594.38 1060.23 1577.22 1054.25 1568.78C1063.93 1564.2 1071.58 1561.91 1077.22 1561.91C1082.85 1561.91 1086.9 1562.53 1089.36 1563.76C1091.82 1564.99 1094.2 1567.72 1096.49 1571.94C1098.95 1576.17 1101.06 1581.8 1102.82 1588.84C1105.46 1599.4 1108.72 1615.06 1112.59 1635.83C1116.46 1656.6 1118.66 1668.04 1119.19 1670.15C1125.35 1701.48 1129.4 1722.95 1131.34 1734.57C1142.78 1710.1 1155.45 1677.63 1169.35 1637.15C1183.26 1596.5 1190.21 1570.1 1190.21 1557.95C1210.1 1561.3 1220.04 1567.81 1220.04 1577.49C1220.04 1584.7 1215.02 1600.02 1204.99 1623.42C1195.14 1646.66 1183.17 1673.5 1169.09 1703.94C1155.18 1734.22 1145.59 1756.57 1140.31 1771ZM1247.53 1727.7C1247.53 1720.31 1248.94 1706.94 1251.75 1687.58C1254.57 1668.22 1255.98 1653.17 1255.98 1642.43C1255.98 1631.7 1255.45 1623.42 1254.39 1617.62C1258.27 1617.26 1261.87 1617.09 1265.22 1617.09C1275.43 1617.09 1282.47 1618.85 1286.34 1622.37C1290.39 1625.71 1292.41 1631.52 1292.41 1639.79C1292.41 1642.43 1290.21 1656.34 1285.81 1681.5C1281.59 1706.5 1279.39 1727.18 1279.21 1743.54C1279.21 1759.74 1280.27 1770.21 1282.38 1774.96C1268.65 1771.44 1259.41 1766.16 1254.66 1759.12C1249.91 1751.9 1247.53 1741.43 1247.53 1727.7ZM1283.43 1594.91C1265.31 1594.91 1256.24 1588.58 1256.24 1575.9C1256.24 1571.33 1257.56 1565.08 1260.2 1557.16C1265.13 1556.46 1269.44 1556.1 1273.14 1556.1C1291.27 1556.1 1300.33 1562.44 1300.33 1575.11C1300.33 1579.69 1299.01 1585.94 1296.37 1593.86C1291.44 1594.56 1287.13 1594.91 1283.43 1594.91ZM1396.5 1637.68C1407.77 1629.23 1418.85 1625.01 1429.77 1625.01C1440.68 1625.01 1449.65 1629.41 1456.69 1638.21C1463.91 1646.83 1467.52 1659.42 1467.52 1675.96C1467.52 1702.36 1460.3 1724.8 1445.87 1743.28C1431.44 1761.76 1414.1 1771 1393.86 1771C1386.65 1771 1379.34 1769.59 1371.95 1766.78C1389.2 1762.73 1402.93 1751.55 1413.13 1733.25C1423.34 1714.94 1428.45 1696.73 1428.45 1678.6C1428.45 1670.15 1426.86 1663.29 1423.69 1658.01C1420.7 1652.73 1416.39 1650.09 1410.76 1650.09C1400.02 1650.09 1390.52 1656.6 1382.25 1669.62C1373.97 1682.65 1367.64 1700.51 1363.24 1723.22C1358.84 1745.74 1356.64 1769.24 1356.64 1793.7C1356.64 1818.34 1358.4 1839.73 1361.92 1857.86C1347.49 1857.33 1336.75 1854.95 1329.71 1850.73C1322.85 1846.68 1319.41 1838.85 1319.41 1827.23C1319.41 1823.01 1322.05 1800.74 1327.33 1760.44C1332.79 1719.96 1335.52 1688.81 1335.52 1666.98C1335.52 1645.16 1334.2 1626.77 1331.56 1611.81C1345.64 1615.33 1355.32 1621.84 1360.6 1631.34C1366.05 1640.85 1368.78 1654.75 1368.78 1673.06C1376.17 1657.92 1385.41 1646.13 1396.5 1637.68Z" fill="black"/>
</svg>
